<?xml version="1.0" standalone="no"?>
<!DOCTYPE svg PUBLIC "-//W3C//DTD SVG 20010904//EN"
 "http://www.w3.org/TR/2001/REC-SVG-20010904/DTD/svg10.dtd">
<svg version="1.0" xmlns="http://www.w3.org/2000/svg"
 width="862.000000pt" height="862.000000pt" viewBox="0 0 862.000000 862.000000"
 preserveAspectRatio="xMidYMid meet">
<metadata>
Created by potrace 1.14, written by Peter Selinger 2001-2017
</metadata>
<g transform="translate(0.000000,862.000000) scale(0.100000,-0.100000)"
fill="#000000" stroke="none">
<path d="M7977 8294 c-1 -1 -87 -5 -192 -9 -187 -7 -246 -10 -355 -19 -156
-11 -227 -18 -250 -21 -14 -2 -58 -7 -99 -10 -41 -4 -84 -9 -95 -11 -11 -2
-48 -6 -83 -9 -34 -3 -72 -8 -85 -10 -13 -3 -43 -7 -68 -11 -25 -3 -71 -10
-103 -15 -32 -6 -70 -12 -85 -14 -32 -4 -96 -15 -126 -21 -11 -2 -37 -7 -56
-10 -102 -19 -223 -44 -255 -54 -16 -5 -41 -11 -55 -14 -14 -2 -63 -14 -110
-26 -47 -12 -92 -23 -100 -25 -41 -10 -207 -60 -305 -93 -60 -20 -112 -37
-115 -37 -3 -1 -12 -5 -20 -8 -8 -4 -51 -20 -95 -36 -174 -64 -601 -263 -625
-292 -3 -3 -20 -12 -37 -20 -18 -8 -33 -17 -33 -21 0 -5 -6 -8 -14 -8 -7 0
-19 -7 -26 -15 -7 -8 -16 -13 -20 -10 -4 3 -10 -2 -14 -10 -3 -8 -10 -15 -16
-15 -6 0 -40 -20 -76 -45 -35 -25 -68 -45 -74 -45 -5 0 -10 -3 -10 -7 -1 -5
-32 -30 -71 -58 -39 -27 -82 -60 -97 -72 -15 -13 -31 -23 -35 -23 -5 0 -5 -4
-2 -10 3 -5 1 -10 -5 -10 -12 0 -18 -5 -124 -101 -163 -149 -333 -338 -436
-488 -19 -27 -38 -50 -42 -51 -5 0 -8 -7 -8 -15 0 -8 -5 -15 -11 -15 -5 0 -7
-4 -4 -10 3 -5 2 -10 -3 -10 -5 0 -14 -10 -21 -22 -6 -13 -19 -35 -29 -49 -35
-53 -92 -156 -92 -167 0 -6 -3 -12 -8 -14 -12 -5 -90 -173 -137 -293 -52 -133
-103 -295 -120 -378 -2 -10 -6 -26 -9 -35 -6 -18 -15 -64 -20 -97 -4 -24 -17
-103 -22 -129 -4 -20 -12 -97 -19 -166 -2 -25 -7 -97 -10 -160 -3 -63 -8 -135
-11 -160 -3 -25 -6 -46 -5 -47 2 -7 -57 -103 -102 -169 -29 -40 -64 -92 -78
-116 -15 -24 -52 -82 -83 -131 -64 -99 -87 -138 -130 -221 -17 -32 -35 -66
-40 -76 -6 -10 -27 -29 -47 -42 l-38 -25 -488 3 c-298 2 -506 -1 -533 -7 -146
-32 -242 -152 -243 -303 -1 -92 24 -147 99 -226 32 -34 51 -60 43 -61 -8 -1
-34 -2 -59 -4 -50 -3 -122 -12 -160 -20 -13 -2 -41 -7 -60 -10 -51 -8 -157
-39 -205 -60 -22 -10 -43 -17 -47 -17 -5 1 -8 -2 -8 -8 0 -5 -6 -10 -13 -10
-37 0 -233 -156 -292 -232 -92 -118 -162 -290 -190 -466 -4 -23 -9 -54 -12
-70 -8 -47 -9 -653 -1 -658 4 -3 3 -14 -2 -25 -6 -10 -7 -19 -3 -19 4 0 7 -42
6 -93 -5 -271 -5 -557 0 -592 4 -22 9 -53 11 -70 31 -204 164 -424 336 -555
25 -19 51 -40 58 -47 7 -7 19 -13 27 -13 7 0 15 -4 17 -8 4 -10 153 -82 180
-87 12 -3 36 -9 55 -16 110 -36 335 -44 1153 -42 1041 3 2212 12 2245 17 86
13 117 19 190 38 44 11 85 24 90 28 6 4 30 15 54 24 60 23 165 92 229 151 55
50 137 153 156 195 6 14 13 27 16 30 18 17 88 217 84 243 -1 9 1 17 5 17 4 0
7 8 7 18 1 9 4 42 9 72 12 87 14 150 20 565 9 609 7 766 -10 845 -3 14 -7 42
-10 62 -2 21 -6 41 -8 45 -3 5 -8 25 -11 46 -7 46 -60 186 -94 247 -46 85
-132 188 -209 250 -56 46 -240 151 -273 155 -3 1 -21 6 -40 13 -42 13 -64 18
-217 46 -32 6 -137 17 -180 19 -13 1 -23 3 -23 5 0 5 92 115 103 123 5 3 9 10
9 15 0 5 5 20 11 34 6 14 11 61 11 105 0 95 -24 153 -87 217 -75 75 -174 102
-362 99 -178 -4 -835 -6 -835 -3 0 4 335 512 348 527 5 6 11 15 13 21 2 6 45
70 94 143 50 73 95 140 100 148 6 9 15 24 22 32 6 9 45 61 87 116 68 92 299
377 335 415 9 9 45 49 81 90 85 97 466 478 554 555 37 33 78 69 90 80 49 44
107 92 221 184 66 53 122 98 125 101 3 3 41 32 85 65 44 32 85 64 90 70 6 5
18 15 27 20 9 6 51 37 94 69 44 33 95 71 114 85 87 66 320 206 320 193 0 -4
-87 -95 -193 -203 -207 -212 -319 -329 -437 -459 -41 -45 -94 -102 -117 -127
-24 -25 -43 -47 -43 -50 0 -2 -11 -14 -25 -27 -14 -13 -25 -28 -25 -35 0 -6
-6 -11 -12 -11 -7 0 -22 -13 -33 -29 -23 -32 -96 -119 -138 -163 -15 -16 -27
-33 -27 -38 0 -4 -4 -10 -8 -12 -6 -2 -159 -186 -210 -253 -46 -61 -77 -101
-82 -105 -3 -3 -37 -48 -75 -100 -38 -52 -72 -97 -75 -100 -3 -3 -24 -30 -45
-60 -22 -30 -45 -62 -52 -70 -42 -53 -83 -111 -83 -118 0 -4 -11 -19 -25 -34
-14 -15 -25 -29 -25 -32 0 -3 -24 -43 -54 -88 -30 -46 -69 -114 -87 -153 -19
-38 -38 -73 -43 -76 -41 -30 272 -41 419 -15 17 3 47 8 69 11 21 4 46 8 55 10
105 21 147 30 151 35 3 3 14 6 25 6 11 1 54 12 95 23 41 12 84 23 95 25 11 1
30 8 43 15 12 6 22 10 22 7 0 -9 317 105 425 154 96 43 399 193 449 223 28 17
97 59 154 94 57 35 107 63 111 63 4 0 16 9 26 20 10 11 24 20 31 20 7 0 14 3
16 8 3 8 64 52 72 52 3 0 14 7 23 14 10 8 61 45 113 82 52 37 107 78 123 90
25 21 26 24 10 32 -22 12 -124 34 -173 38 -56 5 -94 11 -118 18 -12 4 -36 9
-52 11 -16 2 -48 9 -72 16 -24 6 -50 12 -58 13 -38 5 -175 44 -310 89 -52 17
-97 32 -100 32 -3 0 -15 6 -26 13 -12 6 -24 8 -28 5 -3 -3 -6 -2 -6 4 0 6 -12
13 -27 16 -35 8 -150 76 -157 93 -3 7 0 11 7 9 33 -11 201 -29 275 -29 28 0
52 -3 52 -7 0 -4 15 -4 33 0 18 5 41 6 52 4 23 -5 27 -5 80 -4 22 1 61 1 86 0
25 -1 51 1 57 5 6 3 14 2 17 -4 4 -7 12 -7 18 -2 10 7 532 9 532 2 0 -4 111
-5 120 -1 6 3 26 6 45 7 19 1 35 2 35 4 0 1 7 3 16 5 39 7 93 41 151 94 106
96 306 300 355 362 25 32 50 59 55 59 5 0 7 4 4 8 -3 5 4 15 15 22 10 8 19 19
19 24 0 5 6 14 14 20 46 38 423 579 424 610 0 5 4 12 9 15 11 8 56 85 152 261
25 47 46 87 47 90 0 3 25 57 56 120 30 63 59 126 63 140 4 14 11 30 15 35 20
26 125 333 157 460 29 116 49 103 -158 101 -99 0 -181 -2 -182 -2z"/>
</g>
</svg>
